<svg width="24" height="29" viewBox="0 0 24 29" fill="none" xmlns="http://www.w3.org/2000/svg">
<path d="M20.044 15.4068C20.0853 19.7953 23.9573 21.2559 24 21.2746C23.9673 21.3773 23.3815 23.3558 21.9603 25.3991C20.7318 27.1657 19.4566 28.9257 17.4483 28.9626C15.4748 28.9981 14.8401 27.8109 12.5836 27.8109C10.3278 27.8109 9.62293 28.9257 7.75456 28.9981C5.81573 29.0704 4.33931 27.0875 3.10061 25.3276C0.56959 21.7272 -1.36474 15.1536 1.23248 10.7163C2.52266 8.51273 4.82876 7.11752 7.33154 7.08157C9.23526 7.04585 11.0322 8.34162 12.1959 8.34162C13.359 8.34162 15.5426 6.78324 17.8383 7.012C18.7994 7.05145 21.497 7.3939 23.2292 9.8888C23.0899 9.974 20.0106 11.7378 20.044 15.4068ZM16.3351 4.63032C17.3643 3.40458 18.057 1.69774 17.8682 0C16.3844 0.0585909 14.5903 0.972703 13.5262 2.19798C12.5725 3.28273 11.7373 5.01945 11.9625 6.68357C13.6164 6.80962 15.3056 5.85676 16.3351 4.63032Z" fill="black"/>
</svg>
