<svg width="20" height="20" viewBox="0 0 20 20" fill="none" xmlns="http://www.w3.org/2000/svg">
<path fill-rule="evenodd" clip-rule="evenodd" d="M9.66987 15.5299C9.77651 15.5939 9.89051 15.6222 10.0013 15.6208C10.1121 15.6222 10.2261 15.5939 10.3327 15.5299L11.2788 14.9623C13.1342 13.849 15.4034 13.6672 17.4124 14.4708C18.1535 14.7672 18.9596 14.2214 18.9596 13.4232V3.70751C18.9596 3.22588 18.6664 2.79278 18.2192 2.61391C15.6317 1.57888 12.709 1.81307 10.3192 3.24692L10.0013 3.43768L9.68336 3.24692C7.29361 1.81307 4.37094 1.57888 1.78337 2.61391C1.33619 2.79278 1.04297 3.22588 1.04297 3.70751V13.4232C1.04297 14.2214 1.84913 14.7672 2.59023 14.4708C4.59923 13.6672 6.8684 13.849 8.72381 14.9623L9.66987 15.5299ZM2.29297 3.75653V13.2455C4.62279 12.3722 7.2278 12.6069 9.36693 13.8904L9.3763 13.896V4.52042L9.04024 4.31878C6.99942 3.09429 4.50658 2.88734 2.29297 3.75653ZM10.6357 13.8904L10.6263 13.896V4.52042L10.9624 4.31878C13.0032 3.09429 15.496 2.88734 17.7096 3.75653V13.2455C15.3798 12.3722 12.7748 12.6069 10.6357 13.8904Z" fill="#F95C4B"/>
<path d="M7.7306 15.8684C6.04405 14.8846 3.95855 14.8846 2.272 15.8684L2.18638 15.9184C1.88823 16.0923 1.78752 16.475 1.96144 16.7731C2.13537 17.0713 2.51806 17.172 2.81622 16.9981L2.90184 16.9481C4.19918 16.1914 5.80342 16.1914 7.10076 16.9481L8.00681 17.4767C9.23929 18.1956 10.7633 18.1956 11.9958 17.4767L12.9018 16.9481C14.1992 16.1914 15.8034 16.1914 17.1008 16.9481L17.1864 16.9981C17.4845 17.172 17.8672 17.0713 18.0412 16.7731C18.2151 16.475 18.1144 16.0923 17.8162 15.9184L17.7306 15.8684C16.0441 14.8846 13.9585 14.8846 12.272 15.8684L11.366 16.3969C10.5227 16.8889 9.47992 16.8889 8.63665 16.3969L7.7306 15.8684Z" fill="#F95C4B"/>
</svg>
