<svg width="20" height="20" viewBox="0 0 20 20" fill="none" xmlns="http://www.w3.org/2000/svg">
<path fill-rule="evenodd" clip-rule="evenodd" d="M14.1042 1.99783C14.3766 2.27032 14.3766 2.71213 14.1042 2.98462L2.98788 14.1024C2.71542 14.3749 2.27368 14.3749 2.00122 14.1024C1.72876 13.8299 1.72876 13.3881 2.00122 13.1156L13.1175 1.99783C13.39 1.72533 13.8317 1.72533 14.1042 1.99783Z" fill="#F95C4B"/>
<path fill-rule="evenodd" clip-rule="evenodd" d="M10.776 14.2317C11.0485 14.5042 11.0485 14.946 10.776 15.2185L9.65975 16.3349C9.3873 16.6074 8.94555 16.6074 8.67309 16.3349C8.40064 16.0624 8.40064 15.6206 8.67309 15.3481L9.78937 14.2317C10.0618 13.9592 10.5036 13.9592 10.776 14.2317Z" fill="#F95C4B"/>
<path fill-rule="evenodd" clip-rule="evenodd" d="M14.383 10.6219C14.6555 10.8943 14.6555 11.3362 14.383 11.6086L12.1598 13.8322C11.8873 14.1047 11.4456 14.1047 11.1731 13.8322C10.9006 13.5597 10.9006 13.1179 11.1731 12.8454L13.3964 10.6219C13.6688 10.3494 14.1106 10.3494 14.383 10.6219Z" fill="#F95C4B"/>
<path fill-rule="evenodd" clip-rule="evenodd" d="M10.8312 1.39556C10.4053 1.39825 9.84726 1.68735 8.8573 2.67745L2.68056 8.85503C1.68516 9.85057 1.39737 10.408 1.39536 10.8316C1.39337 11.2518 1.67215 11.7999 2.65265 12.7805L7.22009 17.3486C8.199 18.3276 8.74955 18.6052 9.1712 18.6026C9.59706 18.5999 10.1551 18.3108 11.1451 17.3207L17.3218 11.1431C18.3118 10.153 18.6008 9.59489 18.6035 9.16897C18.6062 8.74726 18.3286 8.19664 17.3497 7.2176L12.7823 2.64954C11.8034 1.6705 11.2528 1.3929 10.8312 1.39556ZM10.8224 4.72397e-05C11.8751 -0.00659567 12.7943 0.688029 13.7689 1.66274L18.3364 6.23081C19.311 7.20552 20.0055 8.12487 19.9988 9.17778C19.9922 10.2265 19.2906 11.1476 18.3085 12.1299L12.1317 18.3075C11.1496 19.2898 10.2286 19.9915 9.18 19.9981C8.12724 20.0047 7.20801 19.3101 6.23343 18.3354L1.66599 13.7673C0.693005 12.7942 -0.00495891 11.877 2.65374e-05 10.8249C0.00499596 9.77626 0.707899 8.85437 1.6939 7.86824L7.87064 1.69065C8.85277 0.708388 9.7738 0.0066637 10.8224 4.72397e-05Z" fill="#F95C4B"/>
<path fill-rule="evenodd" clip-rule="evenodd" d="M0 19.3023C0 18.9169 0.312359 18.6045 0.697674 18.6045H19.3023C19.6876 18.6045 20 18.9169 20 19.3023C20 19.6876 19.6876 20 19.3023 20H0.697674C0.312359 20 0 19.6876 0 19.3023Z" fill="#F95C4B"/>
</svg>
