<svg width="20" height="20" viewBox="0 0 20 20" fill="none" xmlns="http://www.w3.org/2000/svg">
<path fill-rule="evenodd" clip-rule="evenodd" d="M5.44681 2.7085C4.95921 2.7085 4.50388 2.95218 4.23341 3.35789L1.24239 7.84442C1.05928 8.11909 1.03738 8.47081 1.18501 8.76607C2.82176 12.0396 5.09639 14.9529 7.87519 17.3347L9.33412 18.5852C9.71777 18.914 10.2839 18.914 10.6675 18.5852L12.1265 17.3347C14.9053 14.9529 17.1799 12.0396 18.8166 8.76607C18.9643 8.47081 18.9424 8.11908 18.7593 7.84442L15.7682 3.35789C15.4978 2.95219 15.0424 2.7085 14.5548 2.7085H5.44681ZM5.27347 4.05127C5.31211 3.99331 5.37716 3.9585 5.44681 3.9585H7.39665L5.80072 7.78873C5.76396 7.87697 5.73622 7.96795 5.71751 8.06036C5.13099 8.01671 4.54496 7.96407 3.95964 7.90246L2.78821 7.77915L5.27347 4.05127ZM2.73304 9.03025C4.22754 11.7719 6.201 14.2263 8.56184 16.2762L5.95728 9.33072C5.247 9.28189 4.53739 9.22018 3.82878 9.14559L2.73304 9.03025ZM7.3215 9.40863L10.0008 16.5535L12.6802 9.40863C10.8949 9.48985 9.1068 9.48985 7.3215 9.40863ZM14.0444 9.33072L11.4398 16.2762C13.8007 14.2263 15.7741 11.7719 17.2686 9.03025L16.1729 9.14559C15.4643 9.22018 14.7547 9.28189 14.0444 9.33072ZM17.2134 7.77915L16.042 7.90246C15.4567 7.96407 14.8707 8.01671 14.2841 8.06036C14.2654 7.96795 14.2377 7.87697 14.2009 7.78873L12.605 3.9585H14.5548C14.6245 3.9585 14.6895 3.99331 14.7282 4.05127L17.2134 7.77915ZM12.9939 8.14187C10.9999 8.24543 9.00179 8.24543 7.00775 8.14187L8.75082 3.9585H11.2508L12.9939 8.14187Z" fill="#1A1A1A"/>
</svg>
