<svg width="32" height="32" viewBox="0 0 32 32" fill="none" xmlns="http://www.w3.org/2000/svg">
<path fill-rule="evenodd" clip-rule="evenodd" d="M17.7283 24.9999C17.95 24.9999 18.1546 24.881 18.2643 24.6884L22.7256 16.8575C23.317 15.8194 23.5651 14.621 23.4346 13.4335L22.9638 9.14856C22.88 8.38618 22.2815 7.7823 21.5199 7.69171L18.6972 7.35592C16.8337 7.13426 14.9444 7.3264 13.1637 7.91866C12.2843 8.21115 11.58 8.87861 11.2406 9.741L8.96852 15.5151C8.91297 15.6563 8.87458 15.8036 8.85417 15.9539C8.68185 17.2234 9.79314 18.2943 11.0554 18.075L15.6098 17.284C17.0484 17.0341 18.291 18.3037 18.0102 19.7367L17.123 24.2645C17.0483 24.6455 17.3401 24.9999 17.7283 24.9999ZM20.0021 25.6784C19.5366 26.4954 18.6686 26.9999 17.7283 26.9999C16.0812 26.9999 14.8436 25.4964 15.1603 23.8799L16.0475 19.3521C16.0513 19.3327 16.0493 19.3208 16.0466 19.3123C16.0433 19.3019 16.0366 19.2896 16.0254 19.2782C16.0143 19.2668 16.0022 19.2598 15.9918 19.2563C15.9833 19.2534 15.9715 19.2511 15.952 19.2545L11.3976 20.0455C8.8027 20.4962 6.51808 18.2947 6.87234 15.6849C6.9143 15.3759 6.99322 15.073 7.10742 14.7827L9.37954 9.00865C9.93591 7.59475 11.0907 6.50043 12.5325 6.02088C14.5923 5.33578 16.7779 5.11351 18.9334 5.36992L21.7561 5.70571C23.4418 5.90622 24.7664 7.24276 24.9518 8.9301L25.4227 13.215C25.5992 14.8217 25.2635 16.443 24.4634 17.8475L20.0021 25.6784Z" fill="#1A1A1A"/>
</svg>
