<svg width="20" height="20" viewBox="0 0 20 20" fill="none" xmlns="http://www.w3.org/2000/svg">
<path fill-rule="evenodd" clip-rule="evenodd" d="M12.6128 2.89107C12.4956 2.77386 12.3366 2.70801 12.1709 2.70801C12.0051 2.70801 11.8461 2.77386 11.7289 2.89107L4.0686 10.5514C3.99008 10.6299 3.93389 10.7279 3.90583 10.8354L3.07249 14.0257C3.01642 14.2404 3.07837 14.4687 3.23526 14.6256C3.39216 14.7825 3.62048 14.8445 3.83516 14.7884L7.02551 13.9551C7.13296 13.927 7.23098 13.8708 7.3095 13.7923L14.9698 6.13197C15.2139 5.88789 15.2139 5.49217 14.9698 5.24809L12.6128 2.89107ZM5.07239 11.3154L12.1709 4.21689L13.644 5.69003L6.54553 12.7885L4.55156 13.3093L5.07239 11.3154Z" fill="#1A1A1A"/>
<path d="M3.33203 16.0413C2.98685 16.0413 2.70703 16.3212 2.70703 16.6663C2.70703 17.0115 2.98685 17.2913 3.33203 17.2913H15.832C16.1772 17.2913 16.457 17.0115 16.457 16.6663C16.457 16.3212 16.1772 16.0413 15.832 16.0413H3.33203Z" fill="#1A1A1A"/>
</svg>
