<svg width="20" height="20" viewBox="0 0 20 20" fill="none" xmlns="http://www.w3.org/2000/svg">
<path d="M9.9987 8.12516C8.96316 8.12516 8.1237 8.96463 8.1237 10.0002C8.1237 11.0357 8.96316 11.8752 9.9987 11.8752C11.0342 11.8752 11.8737 11.0357 11.8737 10.0002C11.8737 8.96463 11.0342 8.12516 9.9987 8.12516Z" fill="white"/>
<path fill-rule="evenodd" clip-rule="evenodd" d="M9.9987 4.5835C7.81722 4.5835 5.85537 5.45965 4.44171 6.54463C3.73396 7.08782 3.15323 7.6911 2.74577 8.27823C2.34608 8.85417 2.08203 9.45977 2.08203 10.0002C2.08203 10.5406 2.34608 11.1462 2.74577 11.7221C3.15323 12.3092 3.73396 12.9125 4.44171 13.4557C5.85537 14.5407 7.81722 15.4168 9.9987 15.4168C12.1802 15.4168 14.142 14.5407 15.5557 13.4557C16.2634 12.9125 16.8442 12.3092 17.2516 11.7221C17.6513 11.1462 17.9154 10.5406 17.9154 10.0002C17.9154 9.45977 17.6513 8.85417 17.2516 8.27823C16.8442 7.6911 16.2634 7.08782 15.5557 6.54463C14.142 5.45965 12.1802 4.5835 9.9987 4.5835ZM6.8737 10.0002C6.8737 8.27427 8.27281 6.87516 9.9987 6.87516C11.7246 6.87516 13.1237 8.27427 13.1237 10.0002C13.1237 11.7261 11.7246 13.1252 9.9987 13.1252C8.27281 13.1252 6.8737 11.7261 6.8737 10.0002Z" fill="white"/>
</svg>
