<svg width="20" height="20" viewBox="0 0 20 20" fill="none" xmlns="http://www.w3.org/2000/svg">
<path d="M11.8327 2.396C10.8105 2.396 9.83017 2.80206 9.10737 3.52486C8.38458 4.24765 7.97852 5.22797 7.97852 6.25016V8.396H5.91602C5.81246 8.396 5.72852 8.47994 5.72852 8.5835V11.4168C5.72852 11.5204 5.81246 11.6043 5.91602 11.6043H7.97852V17.4168C7.97852 17.5204 8.06246 17.6043 8.16602 17.6043H10.9993C11.1029 17.6043 11.1868 17.5204 11.1868 17.4168V11.6043H13.2676C13.3537 11.6043 13.4287 11.5458 13.4495 11.4623L14.1579 8.62897C14.1874 8.51063 14.0979 8.396 13.976 8.396H11.1868V6.25016C11.1868 6.07888 11.2549 5.91461 11.376 5.79349C11.4971 5.67237 11.6614 5.60433 11.8327 5.60433H13.9993C14.1029 5.60433 14.1868 5.52038 14.1868 5.41683V2.5835C14.1868 2.47994 14.1029 2.396 13.9993 2.396H11.8327Z" fill="#3A3A3A"/>
</svg>
