<svg width="20" height="20" viewBox="0 0 20 20" fill="none" xmlns="http://www.w3.org/2000/svg">
<path d="M7.50716 18.3297H12.5072C16.6738 18.3297 18.3405 16.6631 18.3405 12.4964V7.49642C18.3405 3.32975 16.6738 1.66309 12.5072 1.66309H7.50716C3.34049 1.66309 1.67383 3.32975 1.67383 7.49642V12.4964C1.67383 16.6631 3.34049 18.3297 7.50716 18.3297Z" stroke="#F95C4B" stroke-width="1.5" stroke-linecap="round" stroke-linejoin="round"/>
<path d="M7.49284 8.33333C8.41331 8.33333 9.1595 7.58714 9.1595 6.66667C9.1595 5.74619 8.41331 5 7.49284 5C6.57236 5 5.82617 5.74619 5.82617 6.66667C5.82617 7.58714 6.57236 8.33333 7.49284 8.33333Z" stroke="#F95C4B" stroke-width="1.5" stroke-linecap="round" stroke-linejoin="round"/>
<path d="M2.22852 15.7918L6.33685 13.0335C6.99518 12.5918 7.94518 12.6418 8.53685 13.1501L8.81185 13.3918C9.46185 13.9501 10.5119 13.9501 11.1619 13.3918L14.6285 10.4168C15.2785 9.85846 16.3285 9.85846 16.9785 10.4168L18.3369 11.5835" stroke="#F95C4B" stroke-width="1.5" stroke-linecap="round" stroke-linejoin="round"/>
</svg>
