<svg width="75" height="52" viewBox="0 0 75 52" fill="none" xmlns="http://www.w3.org/2000/svg">
<path d="M27.4144 1.74652L27.9558 50.3677C27.965 51.1998 27.298 51.8817 26.4662 51.891L17.9404 51.9858C17.1084 51.9951 16.4264 51.3281 16.4172 50.4962L15.8758 1.87504C15.8666 1.04298 16.5336 0.361029 17.3654 0.351776L25.8912 0.256936C26.723 0.247426 27.4049 0.914458 27.4144 1.74652Z" fill="#F7941D"/>
<mask id="mask0_466_85969" style="mask-type:luminance" maskUnits="userSpaceOnUse" x="0" y="23" width="52" height="14">
<path d="M1.49573 24.8014L50.1061 23.7204C50.938 23.7019 51.6273 24.3613 51.6457 25.1929L51.8352 33.7168C51.8537 34.5487 51.1943 35.2379 50.3627 35.2564L1.75232 36.3374C0.920447 36.3559 0.231158 35.6965 0.212672 34.8649L0.0232066 26.3411C0.00446373 25.5094 0.66386 24.8201 1.49573 24.8014Z" fill="white"/>
</mask>
<g mask="url(#mask0_466_85969)">
<path d="M21.6202 -1.37521L22.2314 53.6826L30.0716 53.5956L29.4604 -1.46224L21.6202 -1.37521Z" fill="#F26522"/>
</g>
<mask id="mask1_466_85969" style="mask-type:luminance" maskUnits="userSpaceOnUse" x="15" y="0" width="13" height="52">
<path d="M27.4149 1.74652L27.9562 50.3677C27.9655 51.1998 27.2985 51.8817 26.4667 51.891L17.9409 51.9858C17.1089 51.9951 16.4269 51.3281 16.4177 50.4962L15.8763 1.87504C15.8671 1.04298 16.5341 0.361029 17.3659 0.351776L25.8916 0.256936C26.7235 0.247426 27.4054 0.914458 27.4149 1.74652Z" fill="white"/>
</mask>
<g mask="url(#mask1_466_85969)">
<path d="M17.6081 1.79238L18.1507 50.5398C18.1646 51.7805 17.1698 52.7977 15.9288 52.8116C14.688 52.8254 13.6709 51.8307 13.657 50.5896L13.1144 1.84223C13.1005 0.601469 14.0953 -0.415669 15.3363 -0.429549C16.5771 -0.443173 17.5942 0.551353 17.6081 1.79238Z" fill="#F9AB5D"/>
</g>
<path d="M16.3237 41.2366L16.377 46.0342L27.9152 45.9061L27.8619 41.1085L16.3237 41.2366Z" fill="#434D6A"/>
<path d="M22.0937 41.1731L22.147 45.9707L27.9161 45.9067L27.8628 41.1091L22.0937 41.1731Z" fill="#2A2D4B"/>
<path d="M16.3208 41.2356L16.374 46.0332L18.1058 46.014L18.0526 41.2164L16.3208 41.2356Z" fill="#52607C"/>
<path d="M15.9358 6.38896L15.989 11.1865L27.5272 11.0584L27.474 6.26087L15.9358 6.38896Z" fill="#434D6A"/>
<path d="M21.7048 6.32548L21.7581 11.123L27.5272 11.059L27.4739 6.26144L21.7048 6.32548Z" fill="#2A2D4B"/>
<path d="M15.9387 6.38994L15.9919 11.1875L17.7237 11.1683L17.6705 6.37071L15.9387 6.38994Z" fill="#52607C"/>
<path d="M38.9852 1.61761L39.5266 50.2388C39.5358 51.0709 38.8691 51.7528 38.037 51.7621L29.5113 51.8569C28.6792 51.8662 27.9972 51.1991 27.988 50.3673L27.4466 1.74613C27.4374 0.91407 28.1044 0.232118 28.9362 0.222864L37.462 0.128025C38.294 0.118771 38.976 0.785803 38.9852 1.61761Z" fill="#F7941D"/>
<mask id="mask2_466_85969" style="mask-type:luminance" maskUnits="userSpaceOnUse" x="11" y="23" width="53" height="14">
<path d="M13.0641 24.6725L61.6745 23.5915C62.5063 23.573 63.1956 24.2322 63.2141 25.064L63.4036 33.5879C63.4221 34.4197 62.7627 35.109 61.9311 35.1275L13.3207 36.2085C12.4888 36.227 11.7995 35.5676 11.781 34.736L11.5916 26.2121C11.5731 25.3803 12.2325 24.691 13.0641 24.6725Z" fill="white"/>
</mask>
<g mask="url(#mask2_466_85969)">
<path d="M33.1898 -1.50411L33.801 53.5537L41.6412 53.4667L41.03 -1.59115L33.1898 -1.50411Z" fill="#F26522"/>
</g>
<mask id="mask3_466_85969" style="mask-type:luminance" maskUnits="userSpaceOnUse" x="27" y="0" width="13" height="52">
<path d="M38.9833 1.61761L39.5246 50.2388C39.5339 51.0709 38.8671 51.7528 38.035 51.7621L29.5093 51.8569C28.6772 51.8662 27.9953 51.1991 27.986 50.3673L27.4447 1.74613C27.4354 0.91407 28.1025 0.232118 28.9343 0.222864L37.46 0.128025C38.2921 0.118771 38.974 0.785803 38.9833 1.61761Z" fill="white"/>
</mask>
<g mask="url(#mask3_466_85969)">
<path d="M29.1767 1.66346L29.7193 50.4109C29.7332 51.6516 28.7384 52.6688 27.4974 52.6826C26.2564 52.6965 25.2392 51.7018 25.2256 50.4607L24.683 1.71333C24.6691 0.472311 25.6639 -0.544827 26.9049 -0.55845C28.1457 -0.572331 29.1628 0.422436 29.1767 1.66346Z" fill="#F9AB5D"/>
</g>
<path d="M27.8933 41.1087L27.9465 45.9062L39.4847 45.7782L39.4315 40.9806L27.8933 41.1087Z" fill="#434D6A"/>
<path d="M33.6623 41.0442L33.7156 45.8418L39.4847 45.7778L39.4314 40.9802L33.6623 41.0442Z" fill="#2A2D4B"/>
<path d="M27.8894 41.1077L27.9426 45.9053L29.6744 45.886L29.6212 41.0885L27.8894 41.1077Z" fill="#52607C"/>
<path d="M27.5061 6.26201L27.5593 11.0596L39.0975 10.9315L39.0443 6.13392L27.5061 6.26201Z" fill="#434D6A"/>
<path d="M33.2754 6.19853L33.3286 10.9961L39.0977 10.9321L39.0445 6.13449L33.2754 6.19853Z" fill="#2A2D4B"/>
<path d="M27.5053 6.26198L27.5586 11.0596L29.2904 11.0403L29.2372 6.24275L27.5053 6.26198Z" fill="#52607C"/>
<path d="M50.4476 1.48969L50.989 50.1109C50.9982 50.9429 50.3312 51.6249 49.4994 51.6341L40.9736 51.729C40.1416 51.7383 39.4596 51.0712 39.4504 50.2394L38.909 1.61822C38.8998 0.786156 39.5668 0.104204 40.3986 0.0949503L48.9244 9.51626e-05C49.7565 -0.00915853 50.4383 0.657632 50.4476 1.48969Z" fill="#F7941D"/>
<mask id="mask4_466_85969" style="mask-type:luminance" maskUnits="userSpaceOnUse" x="23" y="23" width="52" height="14">
<path d="M24.5275 24.5456L73.1378 23.4645C73.9697 23.4461 74.659 24.1055 74.6775 24.9371L74.867 33.4609C74.8855 34.2928 74.226 34.9821 73.3944 35.0006L24.7841 36.0816C23.9522 36.1 23.2629 35.4407 23.2444 34.609L23.0549 26.0852C23.0365 25.2533 23.6956 24.5641 24.5275 24.5456Z" fill="white"/>
</mask>
<g mask="url(#mask4_466_85969)">
<path d="M44.6527 -1.632L45.2639 53.4258L53.1041 53.3387L52.4929 -1.71904L44.6527 -1.632Z" fill="#F26522"/>
</g>
<mask id="mask5_466_85969" style="mask-type:luminance" maskUnits="userSpaceOnUse" x="38" y="0" width="13" height="52">
<path d="M50.4471 1.48969L50.9885 50.1109C50.9978 50.9429 50.3307 51.6249 49.4989 51.6341L40.9731 51.729C40.1411 51.7383 39.4591 51.0712 39.4499 50.2394L38.9085 1.61822C38.8993 0.786156 39.5663 0.104204 40.3981 0.0949503L48.9239 9.51626e-05C49.756 -0.00915853 50.4379 0.657632 50.4471 1.48969Z" fill="white"/>
</mask>
<g mask="url(#mask5_466_85969)">
<path d="M40.6396 1.5365L41.1822 50.2839C41.1961 51.5247 40.2013 52.5421 38.9603 52.5557C37.7193 52.5696 36.7022 51.5748 36.6885 50.3338L36.1459 1.58638C36.132 0.34561 37.1268 -0.671528 38.3678 -0.685409C39.6088 -0.699032 40.626 0.295735 40.6396 1.5365Z" fill="#F9AB5D"/>
</g>
<path d="M39.3523 40.9798L39.4055 45.7773L50.9437 45.6493L50.8905 40.8517L39.3523 40.9798Z" fill="#434D6A"/>
<path d="M45.1223 40.9163L45.1755 45.7139L50.9446 45.6498L50.8914 40.8523L45.1223 40.9163Z" fill="#2A2D4B"/>
<path d="M39.3581 40.9827L39.4114 45.7803L41.1432 45.761L41.0899 40.9635L39.3581 40.9827Z" fill="#52607C"/>
<path d="M38.9704 6.1331L39.0237 10.9307L50.5619 10.8026L50.5086 6.00501L38.9704 6.1331Z" fill="#434D6A"/>
<path d="M44.7395 6.06963L44.7927 10.8672L50.5618 10.8031L50.5086 6.00558L44.7395 6.06963Z" fill="#2A2D4B"/>
<path d="M38.9694 6.1331L39.0227 10.9307L40.7545 10.9114L40.7013 6.11388L38.9694 6.1331Z" fill="#52607C"/>
</svg>
