<svg width="16" height="16" viewBox="0 0 16 16" fill="none" xmlns="http://www.w3.org/2000/svg">
<path fill-rule="evenodd" clip-rule="evenodd" d="M13.8418 2.17548C13.4939 1.82758 13.081 1.55161 12.6264 1.36332C12.1719 1.17503 11.6848 1.07812 11.1928 1.07812C10.7008 1.07812 10.2137 1.17503 9.75915 1.36332C9.30463 1.55161 8.89165 1.82758 8.5438 2.17548L6.4278 4.29148C6.07878 4.64054 5.80211 5.05506 5.61365 5.51128C5.42519 5.96751 5.32866 6.45644 5.32959 6.95006C5.33052 7.44367 5.42889 7.93224 5.61906 8.38775C5.80924 8.84326 6.08747 9.25674 6.4378 9.60448L6.7758 9.94148C6.91925 10.0693 7.10622 10.1372 7.29824 10.1314C7.49027 10.1255 7.67275 10.0463 7.80814 9.91001C7.94354 9.77372 8.02155 9.59072 8.02614 9.39866C8.03073 9.2066 7.96154 9.02008 7.8328 8.87748L7.4938 8.53948C7.28379 8.33079 7.11703 8.08269 7.00308 7.80943C6.88913 7.53616 6.83024 7.24309 6.82978 6.94702C6.82931 6.65095 6.88729 6.35769 7.00037 6.08407C7.11346 5.81045 7.27944 5.56183 7.4888 5.35248L9.6048 3.23548C9.81142 3.01749 10.0596 2.84313 10.3348 2.72271C10.61 2.60229 10.9065 2.53826 11.2068 2.53441C11.5071 2.53055 11.8052 2.58694 12.0833 2.70025C12.3615 2.81356 12.6141 2.98149 12.8263 3.1941C13.0384 3.40672 13.2058 3.65971 13.3185 3.93812C13.4312 4.21653 13.4869 4.51471 13.4824 4.81503C13.4779 5.11535 13.4132 5.41172 13.2922 5.68661C13.1712 5.9615 12.9963 6.20934 12.7778 6.41548L11.7258 7.46348C11.656 7.53288 11.6006 7.61536 11.5626 7.70619C11.5247 7.79702 11.505 7.89443 11.5048 7.99286C11.5045 8.09129 11.5236 8.18881 11.561 8.27986C11.5984 8.3709 11.6534 8.45368 11.7228 8.52348C11.7922 8.59328 11.8747 8.64872 11.9655 8.68665C12.0563 8.72457 12.1537 8.74424 12.2522 8.74451C12.3506 8.74479 12.4481 8.72568 12.5392 8.68827C12.6302 8.65086 12.713 8.59589 12.7828 8.52648L13.8358 7.47948C14.1851 7.13198 14.4624 6.71896 14.6518 6.26409C14.8412 5.80922 14.939 5.32145 14.9396 4.82873C14.9401 4.336 14.8435 3.84801 14.6551 3.39271C14.4667 2.93742 14.1903 2.52377 13.8418 2.17548ZM2.1778 13.8455C2.52603 14.1938 2.93947 14.4701 3.39451 14.6586C3.84954 14.8472 4.33726 14.9442 4.8298 14.9442C5.32234 14.9442 5.81006 14.8472 6.26509 14.6586C6.72013 14.4701 7.13357 14.1938 7.4818 13.8455L9.6028 11.7235C10.306 11.0202 10.701 10.0665 10.701 9.07198C10.701 8.07749 10.306 7.12373 9.6028 6.42048L9.2408 6.05848C9.1712 5.98888 9.08857 5.93367 8.99763 5.896C8.9067 5.85834 8.80923 5.83895 8.7108 5.83895C8.61237 5.83895 8.5149 5.85834 8.42397 5.896C8.33303 5.93367 8.2504 5.98888 8.1808 6.05848C8.1112 6.12808 8.05599 6.21071 8.01832 6.30165C7.98065 6.39258 7.96127 6.49005 7.96127 6.58848C7.96127 6.68691 7.98065 6.78438 8.01832 6.87531C8.05599 6.96625 8.1112 7.04888 8.1808 7.11848L8.5418 7.48148C9.4218 8.35948 9.4218 9.78448 8.5418 10.6635L6.4218 12.7845C5.99984 13.2066 5.42749 13.4438 4.83065 13.4438C4.23382 13.4439 3.66139 13.2069 3.2393 12.785C2.81721 12.363 2.58003 11.7907 2.57993 11.1938C2.57984 10.597 2.81684 10.0246 3.2388 9.60248L4.3088 8.53348C4.44937 8.39265 4.52823 8.20175 4.52804 8.00277C4.52785 7.8038 4.44863 7.61305 4.3078 7.47248C4.16697 7.33192 3.97607 7.25305 3.77709 7.25324C3.57812 7.25343 3.38737 7.33265 3.2468 7.47348L2.1778 8.54148C1.82948 8.88971 1.55316 9.30315 1.36465 9.75819C1.17613 10.2132 1.0791 10.7009 1.0791 11.1935C1.0791 11.686 1.17613 12.1737 1.36465 12.6288C1.55316 13.0838 1.82948 13.4972 2.1778 13.8455Z" fill="#9A9A9A"/>
</svg>
