<svg width="20" height="20" viewBox="0 0 20 20" fill="none" xmlns="http://www.w3.org/2000/svg">
<path d="M9.44688 3.125C9.06521 3.12501 8.70768 3.31172 8.48957 3.62492L4.96301 8.68917C4.30078 9.64015 4.00562 10.7989 4.1322 11.9508L4.40338 14.4186C4.51927 15.4732 5.34716 16.3086 6.40066 16.4339L8.16487 16.6437C9.51209 16.804 10.8781 16.6651 12.1654 16.2369C13.0665 15.9372 13.7883 15.2532 14.136 14.3695L15.5599 10.7512C15.6288 10.5761 15.6764 10.3935 15.7017 10.2071C15.9219 8.58446 14.4557 7.24019 12.8583 7.60014L9.60999 8.33207L10.5765 4.58279C10.7669 3.84445 10.2094 3.12499 9.44688 3.125Z" fill="#9A9A9A"/>
</svg>
