<svg width="32" height="32" viewBox="0 0 32 32" fill="none" xmlns="http://www.w3.org/2000/svg">
<path d="M21.3335 10.667C23.4552 10.667 25.4901 11.5098 26.9904 13.0101C28.4906 14.5104 29.3335 16.5453 29.3335 18.667V28.0003H24.0002V18.667C24.0002 17.9597 23.7192 17.2815 23.2191 16.7814C22.719 16.2813 22.0407 16.0003 21.3335 16.0003C20.6263 16.0003 19.948 16.2813 19.4479 16.7814C18.9478 17.2815 18.6668 17.9597 18.6668 18.667V28.0003H13.3335V18.667C13.3335 16.5453 14.1764 14.5104 15.6766 13.0101C17.1769 11.5098 19.2118 10.667 21.3335 10.667Z" stroke="#3A3A3A" stroke-width="3" stroke-linecap="round" stroke-linejoin="round"/>
<path d="M7.99984 12H2.6665V28H7.99984V12Z" stroke="#3A3A3A" stroke-width="3" stroke-linecap="round" stroke-linejoin="round"/>
<path d="M5.33317 8.00033C6.80593 8.00033 7.99984 6.80642 7.99984 5.33366C7.99984 3.8609 6.80593 2.66699 5.33317 2.66699C3.86041 2.66699 2.6665 3.8609 2.6665 5.33366C2.6665 6.80642 3.86041 8.00033 5.33317 8.00033Z" stroke="#3A3A3A" stroke-width="3" stroke-linecap="round" stroke-linejoin="round"/>
</svg>
