<svg width="16" height="16" viewBox="0 0 16 16" fill="none" xmlns="http://www.w3.org/2000/svg">
<path fill-rule="evenodd" clip-rule="evenodd" d="M4.87166 5.17251L5.10037 7.23089L4.63755 7.26783C3.99216 7.31936 3.46516 7.80451 3.36053 8.44345C3.11941 9.91605 3.11941 11.4181 3.36053 12.8907C3.46516 13.5296 3.99216 14.0148 4.63755 14.0663L5.63497 14.1459C7.20973 14.2716 8.79202 14.2716 10.3668 14.1459L11.3642 14.0663C12.0096 14.0148 12.5366 13.5296 12.6412 12.8907C12.8823 11.4181 12.8823 9.91605 12.6412 8.44345C12.5366 7.80451 12.0096 7.31936 11.3642 7.26783L10.9013 7.23088L11.13 5.17251C11.157 4.92986 11.157 4.68497 11.13 4.44231L11.1148 4.30572C10.9538 2.85679 9.81478 1.71035 8.36692 1.54001C8.12371 1.5114 7.87797 1.5114 7.63476 1.54001C6.1869 1.71035 5.04783 2.85679 4.88684 4.30572L4.87166 4.44231C4.8447 4.68497 4.8447 4.92986 4.87166 5.17251ZM8.25008 2.53317C8.08449 2.51368 7.91719 2.51368 7.7516 2.53317C6.76585 2.64914 5.99033 3.42967 5.88072 4.41615L5.86555 4.55275C5.84674 4.722 5.84674 4.89282 5.86555 5.06208L6.09808 7.15487C7.36528 7.0736 8.6364 7.0736 9.9036 7.15487L10.1361 5.06208C10.1549 4.89282 10.1549 4.722 10.1361 4.55275L10.121 4.41615C10.0113 3.42967 9.23583 2.64914 8.25008 2.53317ZM8.00086 9.66706C7.44857 9.66706 7.00086 10.1148 7.00086 10.6671C7.00086 11.2193 7.44857 11.6671 8.00086 11.6671C8.55314 11.6671 9.00086 11.2193 9.00086 10.6671C9.00086 10.1148 8.55314 9.66706 8.00086 9.66706Z" fill="white"/>
</svg>
