<svg width="16" height="13" viewBox="0 0 16 13" fill="none" xmlns="http://www.w3.org/2000/svg">
<g clip-path="url(#clip0_582_3027)">
<path d="M16 1.58267C15.4009 1.84685 14.7654 2.02025 14.1146 2.09707C14.7924 1.69276 15.3129 1.05253 15.5579 0.289695C14.9136 0.670213 14.2086 0.938323 13.4735 1.08245C12.8747 0.447561 12.0216 0.0507812 11.0774 0.0507812C9.26456 0.0507812 7.79475 1.5135 7.79475 3.31758C7.79475 3.57366 7.82381 3.82296 7.87975 4.06212C5.15162 3.92584 2.73287 2.62528 1.11381 0.648781C0.831312 1.13127 0.669438 1.69251 0.669438 2.29114C0.669438 3.42456 1.249 4.42444 2.12975 5.01031C1.60846 4.99409 1.09864 4.85397 0.642875 4.60165C0.642708 4.61534 0.642646 4.62904 0.642687 4.64277C0.642687 6.22559 1.77419 7.546 3.27581 7.84612C2.79243 7.97693 2.28539 7.99608 1.79344 7.9021C2.21112 9.19998 3.42344 10.1444 4.85981 10.1709C3.73638 11.047 2.32094 11.5693 0.783063 11.5693C0.518063 11.5693 0.256813 11.5539 0 11.5237C1.45269 12.4506 3.17813 12.9914 5.03188 12.9914C11.0698 12.9914 14.3715 8.01344 14.3715 3.69644C14.3715 3.55475 14.3683 3.41386 14.362 3.27379C15.0046 2.81138 15.5593 2.23873 16 1.58267Z" fill="#55ACEE"/>
</g>
<defs>
<clipPath id="clip0_582_3027">
<rect width="16" height="13" fill="white"/>
</clipPath>
</defs>
</svg>
