<svg width="84" height="21" viewBox="0 0 84 21" fill="none" xmlns="http://www.w3.org/2000/svg">
<path d="M9.68516 4.10742V1.48242H1.28516V19.5177H9.68516V16.8927C7.96441 16.8927 6.31412 16.2192 5.0974 15.0203C3.88066 13.8215 3.1971 12.1955 3.1971 10.5001C3.1971 8.80463 3.88066 7.17862 5.0974 5.97979C6.31412 4.78094 7.96441 4.10742 9.68516 4.10742Z" fill="#F95C4B"/>
<path d="M9.68555 4.10742V16.8927C11.4063 16.8927 13.0566 16.2192 14.2733 15.0203C15.4901 13.8215 16.1736 12.1955 16.1736 10.5001C16.1736 8.80463 15.4901 7.17862 14.2733 5.97979C13.0566 4.78094 11.4063 4.10742 9.68555 4.10742Z" fill="#F95C4B"/>
<path d="M20.8867 5.71289H22.7673V14.6379H20.8867V5.71289Z" fill="#F95C4B"/>
<path d="M23.8206 11.5805C23.8206 10.9384 24.0141 10.3107 24.3766 9.77706C24.739 9.24342 25.2541 8.8278 25.8566 8.5829C26.4591 8.33807 27.1217 8.27495 27.7606 8.40156C28.3995 8.52818 28.9859 8.83886 29.4454 9.29419C29.9049 9.74958 30.2169 10.3291 30.3418 10.9593C30.4666 11.5895 30.3987 12.2421 30.1467 12.8343C29.8947 13.4264 29.47 13.9316 28.9264 14.2856C28.3827 14.6397 27.7445 14.8268 27.0928 14.8231C26.6606 14.8265 26.232 14.7447 25.8323 14.5827C25.4325 14.4207 25.0696 14.1816 24.7648 13.8797C24.46 13.5776 24.2195 13.2187 24.0574 12.8239C23.8953 12.4291 23.8148 12.0063 23.8206 11.5805ZM28.5346 11.5805C28.5272 11.3036 28.4372 11.0351 28.2757 10.8085C28.1142 10.5818 27.8885 10.4071 27.6267 10.3061C27.365 10.2052 27.0789 10.1825 26.8042 10.241C26.5295 10.2995 26.2784 10.4364 26.0822 10.6348C25.8861 10.8331 25.7536 11.084 25.7015 11.3561C25.6493 11.6283 25.6797 11.9095 25.7889 12.1646C25.8981 12.4198 26.0812 12.6376 26.3154 12.7907C26.5495 12.9439 26.8243 13.0256 27.1054 13.0258C27.2968 13.0295 27.4868 12.9942 27.6637 12.9222C27.8406 12.8502 28.0005 12.7431 28.1335 12.6074C28.2665 12.4718 28.3696 12.3105 28.4365 12.1339C28.5034 11.9572 28.5325 11.7688 28.5221 11.5805H28.5346Z" fill="#F95C4B"/>
<path d="M37.8064 8.52308V14.3351C37.8064 16.3857 36.1766 17.2566 34.5279 17.2566C33.9464 17.3036 33.3631 17.1898 32.8437 16.9279C32.3243 16.666 31.8894 16.2665 31.5879 15.7743L33.1739 14.8725C33.3024 15.1278 33.5068 15.3384 33.76 15.4764C34.0131 15.6143 34.3028 15.673 34.5906 15.6445C34.774 15.6668 34.96 15.6489 35.1355 15.5921C35.311 15.5352 35.4716 15.4408 35.6057 15.3157C35.7399 15.1906 35.8444 15.0378 35.9116 14.8683C35.9789 14.6988 36.0073 14.5167 35.9948 14.3351V13.7731C35.776 14.0345 35.4983 14.2421 35.1838 14.3793C34.8693 14.5165 34.5267 14.5797 34.1832 14.5637C33.3519 14.5637 32.5547 14.2383 31.9669 13.6591C31.3791 13.08 31.0488 12.2945 31.0488 11.4754C31.0488 10.6564 31.3791 9.87091 31.9669 9.29174C32.5547 8.71257 33.3519 8.3872 34.1832 8.3872C34.5267 8.3712 34.8693 8.43432 35.1838 8.57156C35.4983 8.70881 35.776 8.91633 35.9948 9.17778V8.56014L37.8064 8.52308ZM35.9948 11.4569C36.0073 11.1614 35.9298 10.869 35.7723 10.6172C35.6147 10.3655 35.3844 10.1659 35.1108 10.0442C34.8372 9.92242 34.533 9.88413 34.2371 9.93416C33.9413 9.98419 33.6674 10.1203 33.4507 10.3249C33.234 10.5295 33.0843 10.7934 33.021 11.0825C32.9577 11.3716 32.9836 11.6727 33.0954 11.9472C33.2072 12.2217 33.3998 12.4569 33.6483 12.6227C33.8969 12.7885 34.1902 12.8772 34.4903 12.8775C34.6862 12.8914 34.8829 12.8646 35.0675 12.799C35.2523 12.7334 35.421 12.6303 35.5628 12.4964C35.7046 12.3626 35.8163 12.2009 35.8907 12.0218C35.9651 11.8427 36.0006 11.6503 35.9948 11.4569Z" fill="#F95C4B"/>
<path d="M38.8655 11.5805C38.8655 10.9389 39.0587 10.3118 39.4205 9.77838C39.7824 9.24498 40.2968 8.82936 40.8985 8.58416C41.5002 8.33889 42.1623 8.27503 42.8009 8.40066C43.4394 8.52628 44.0258 8.83573 44.4859 9.28982C44.9459 9.74398 45.2588 10.3223 45.385 10.9517C45.5114 11.5812 45.4453 12.2333 45.1952 12.8257C44.9452 13.4182 44.5224 13.9241 43.9804 14.2797C43.4383 14.6353 42.8014 14.8244 42.1502 14.8232C41.7172 14.8273 41.2876 14.7462 40.8868 14.5847C40.486 14.4231 40.1219 14.1843 39.816 13.8823C39.51 13.5802 39.2683 13.2211 39.1051 12.8258C38.9419 12.4306 38.8604 12.0072 38.8655 11.5805ZM43.5795 11.5805C43.5721 11.3035 43.4818 11.0347 43.3201 10.8079C43.1584 10.5811 42.9322 10.4064 42.6701 10.3057C42.4081 10.2049 42.1216 10.1826 41.8468 10.2416C41.5719 10.3005 41.3208 10.4381 41.1249 10.6371C40.929 10.836 40.797 11.0875 40.7456 11.36C40.6941 11.6326 40.7254 11.914 40.8356 12.169C40.9457 12.4241 41.1298 12.6414 41.3648 12.7939C41.5998 12.9462 41.8752 13.027 42.1565 13.0258C42.3479 13.0296 42.5379 12.9943 42.7148 12.9223C42.8917 12.8503 43.0517 12.7431 43.1846 12.6075C43.3176 12.4719 43.4207 12.3106 43.4876 12.134C43.5545 11.9573 43.5836 11.7689 43.5732 11.5805H43.5795Z" fill="#F95C4B"/>
<path d="M46.3066 6.88652C46.3066 6.66911 46.3721 6.45652 46.4947 6.27573C46.6173 6.09492 46.7916 5.95401 46.9954 5.8708C47.1994 5.78759 47.4237 5.76581 47.6402 5.80823C47.8566 5.85065 48.0554 5.95536 48.2115 6.10912C48.3675 6.26288 48.4738 6.4588 48.5168 6.67201C48.5599 6.88529 48.5378 7.10634 48.4533 7.30726C48.3689 7.50812 48.2259 7.67983 48.0424 7.80064C47.8589 7.92145 47.6432 7.98593 47.4225 7.98593C47.1275 7.98272 46.8456 7.86586 46.6371 7.66037C46.4285 7.45488 46.3099 7.17713 46.3066 6.88652ZM46.4884 8.52329H48.369V14.638H46.4884V8.52329Z" fill="#F95C4B"/>
<path d="M56.4174 11.5813C56.4384 11.988 56.3777 12.3948 56.2386 12.7782C56.0995 13.1616 55.8848 13.5142 55.6069 13.8155C55.329 14.1169 54.9934 14.3612 54.6193 14.5342C54.2452 14.7073 53.8401 14.8057 53.4272 14.824C53.0769 14.8469 52.7257 14.7917 52.4001 14.6623C52.0745 14.5328 51.7828 14.3326 51.5466 14.0766V17.0969H49.666V8.52396H51.5466V9.09837C51.7831 8.84309 52.0751 8.64384 52.4007 8.51549C52.7264 8.38709 53.0773 8.33298 53.4272 8.35719C53.8384 8.37541 54.2419 8.47331 54.6147 8.6452C54.9875 8.81709 55.3223 9.0597 55.6 9.35908C55.8777 9.65845 56.0928 10.0088 56.233 10.3901C56.3732 10.7714 56.4359 11.1761 56.4174 11.5813ZM54.5368 11.5813C54.5294 11.2944 54.4361 11.0161 54.2689 10.7812C54.1017 10.5463 53.8677 10.3652 53.5965 10.2608C53.3252 10.1563 53.0287 10.1331 52.744 10.1939C52.4595 10.2547 52.1994 10.397 51.9965 10.6029C51.7936 10.8088 51.6569 11.069 51.6035 11.3512C51.5501 11.6333 51.5824 11.9246 51.6964 12.1887C51.8103 12.4527 52.0008 12.6778 52.2441 12.8357C52.4873 12.9936 52.7724 13.0771 53.0636 13.076C53.2631 13.0844 53.4621 13.0511 53.6476 12.9783C53.8332 12.9055 54.001 12.795 54.1401 12.6539C54.2792 12.5127 54.3864 12.3442 54.4548 12.1594C54.5232 11.9745 54.5511 11.7775 54.5368 11.5813Z" fill="#F95C4B"/>
<path d="M62.1418 12.8042C62.1418 14.2125 60.8881 14.8116 59.5591 14.8116C59.0171 14.8596 58.4729 14.7464 57.9968 14.4866C57.5208 14.2267 57.1348 13.8322 56.8887 13.3539L58.506 12.4522C58.5701 12.6726 58.709 12.8646 58.8995 12.9961C59.0901 13.1277 59.3207 13.1908 59.5529 13.1748C59.9979 13.1748 60.2236 13.0389 60.2236 12.7919C60.2236 12.1187 57.1708 12.4769 57.1708 10.3584C57.1708 9.02424 58.3117 8.35718 59.603 8.35718C60.0938 8.3355 60.5815 8.44526 61.0141 8.67471C61.4468 8.90417 61.8083 9.2448 62.0603 9.66042L60.443 10.5004C60.3715 10.3411 60.2548 10.2056 60.1069 10.1102C59.9589 10.0148 59.786 9.96374 59.6093 9.96306C59.2833 9.96306 59.089 10.0866 59.089 10.3028C59.089 11.0069 62.1418 10.5437 62.1418 12.8042Z" fill="#F95C4B"/>
<path d="M68.9545 8.52344V14.6381H67.0739V14.0637C66.8601 14.318 66.5887 14.5192 66.2822 14.6512C65.975 14.7832 65.6409 14.8422 65.3061 14.8234C64.0524 14.8234 62.9805 13.9402 62.9805 12.2911V8.52344H64.8611V12.0131C64.846 12.159 64.8636 12.3063 64.9125 12.4449C64.9614 12.5835 65.0397 12.71 65.1425 12.8157C65.246 12.9214 65.3713 13.0038 65.5099 13.0572C65.6484 13.1106 65.797 13.1337 65.9455 13.1249C66.6226 13.1249 67.099 12.7296 67.099 11.8896V8.52344H68.9545Z" fill="#F95C4B"/>
<path d="M79.6115 10.883V14.6383H77.7309V11.0436C77.7309 10.426 77.4362 10.043 76.8407 10.043C76.2452 10.043 75.8691 10.4692 75.8691 11.1919V14.6383H73.9885V11.0436C73.9885 10.426 73.6939 10.043 73.0983 10.043C72.5028 10.043 72.1267 10.4692 72.1267 11.1919V14.6383H70.2461V8.52364H72.1267V9.0857C72.3216 8.8374 72.5755 8.64074 72.867 8.51351C73.1579 8.38627 73.477 8.33241 73.7942 8.35687C74.112 8.3405 74.4292 8.40598 74.7138 8.54674C74.9984 8.6875 75.241 8.8988 75.4177 9.15981C75.6246 8.88706 75.8979 8.67039 76.2126 8.53C76.5267 8.38955 76.8727 8.33 77.2168 8.35687C78.6837 8.35687 79.6115 9.35746 79.6115 10.883Z" fill="#F95C4B"/>
<path d="M81.1916 8.4862C81.9532 8.4862 82.5707 7.87782 82.5707 7.12738C82.5707 6.37694 81.9532 5.76855 81.1916 5.76855C80.43 5.76855 79.8125 6.37694 79.8125 7.12738C79.8125 7.87782 80.43 8.4862 81.1916 8.4862Z" fill="#F95C4B"/>
</svg>
