<svg width="20" height="20" viewBox="0 0 20 20" fill="none" xmlns="http://www.w3.org/2000/svg">
<path d="M2.5 9.16667L17.5 5V15L2.5 11.6667V9.16667Z" stroke="#5A5A5A" stroke-width="1.4" stroke-linecap="round" stroke-linejoin="round"/>
<path d="M9.66579 14.0003C9.57824 14.3177 9.42904 14.6147 9.22671 14.8744C9.02438 15.1341 8.77287 15.3514 8.48656 15.5139C8.20025 15.6764 7.88473 15.7809 7.55802 15.8215C7.23131 15.8621 6.89982 15.8379 6.58246 15.7503C6.26509 15.6628 5.96808 15.5136 5.70838 15.3112C5.44868 15.1089 5.23138 14.8574 5.06888 14.5711C4.90637 14.2848 4.80186 13.9693 4.76129 13.6426C4.72073 13.3159 4.74491 12.9844 4.83246 12.667" stroke="black" stroke-width="1.4" stroke-linecap="round" stroke-linejoin="round"/>
</svg>
