<svg width="20" height="20" viewBox="0 0 20 20" fill="none" xmlns="http://www.w3.org/2000/svg">
<path d="M7.08659 15.8317H6.66992C3.33659 15.8317 1.66992 14.9984 1.66992 10.8317V6.66504C1.66992 3.33171 3.33659 1.66504 6.66992 1.66504H13.3366C16.6699 1.66504 18.3366 3.33171 18.3366 6.66504V10.8317C18.3366 14.165 16.6699 15.8317 13.3366 15.8317H12.9199C12.6616 15.8317 12.4116 15.9567 12.2533 16.165L11.0033 17.8317C10.4533 18.565 9.55325 18.565 9.00325 17.8317L7.75325 16.165C7.61992 15.9817 7.31159 15.8317 7.08659 15.8317Z" stroke="#3A3A3A" stroke-width="1.5" stroke-miterlimit="10" stroke-linecap="round" stroke-linejoin="round"/>
<path d="M13.332 9.16667H13.3395" stroke="#3A3A3A" stroke-width="2" stroke-linecap="round" stroke-linejoin="round"/>
<path d="M9.99217 9.16667H9.99965" stroke="#3A3A3A" stroke-width="2" stroke-linecap="round" stroke-linejoin="round"/>
<path d="M6.66209 9.16667H6.66957" stroke="#3A3A3A" stroke-width="2" stroke-linecap="round" stroke-linejoin="round"/>
</svg>
