<svg width="24" height="24" viewBox="0 0 24 24" fill="none" xmlns="http://www.w3.org/2000/svg">
<path d="M15.9961 6.29902V5.99902C15.9961 3.78902 14.2061 1.99902 11.9961 1.99902C9.78609 1.99902 7.99609 3.78902 7.99609 5.99902V10.999" stroke="#FAF8F5" stroke-width="2" stroke-linecap="round" stroke-linejoin="round"/>
<path d="M9.03906 14.189C9.76906 14.999 10.8291 15.499 11.9991 15.499C14.2091 15.499 15.9991 13.709 15.9991 11.499V10.999" stroke="#FAF8F5" stroke-width="2" stroke-linecap="round" stroke-linejoin="round"/>
<path d="M6.78125 16.9504C8.15125 18.2204 9.98125 19.0004 12.0012 19.0004C16.2212 19.0004 19.6512 15.5704 19.6512 11.3504V9.65039" stroke="#FAF8F5" stroke-width="2" stroke-linecap="round" stroke-linejoin="round"/>
<path d="M4.35156 9.65039V11.3504C4.35156 12.4104 4.56156 13.4104 4.95156 14.3304" stroke="#FAF8F5" stroke-width="2" stroke-linecap="round" stroke-linejoin="round"/>
<path d="M20.0697 2.83301L3.92969 18.983" stroke="#FAF8F5" stroke-width="2" stroke-linecap="round" stroke-linejoin="round"/>
<path d="M10.9961 3V6" stroke="#FAF8F5" stroke-width="2" stroke-linecap="round" stroke-linejoin="round"/>
<path d="M12 19.001V22.001" stroke="#FAF8F5" stroke-width="2" stroke-linecap="round" stroke-linejoin="round"/>
</svg>
