<svg width="20" height="20" viewBox="0 0 20 20" fill="none" xmlns="http://www.w3.org/2000/svg">
<g clip-path="url(#clip0_582_17258)">
<path d="M3.33268 18.3337H16.666C17.108 18.3337 17.532 18.1581 17.8445 17.8455C18.1571 17.5329 18.3327 17.109 18.3327 16.667V3.33366C18.3327 2.89163 18.1571 2.46771 17.8445 2.15515C17.532 1.84259 17.108 1.66699 16.666 1.66699H6.66602C6.22399 1.66699 5.80006 1.84259 5.4875 2.15515C5.17494 2.46771 4.99935 2.89163 4.99935 3.33366V16.667C4.99935 17.109 4.82375 17.5329 4.51119 17.8455C4.19863 18.1581 3.77471 18.3337 3.33268 18.3337ZM3.33268 18.3337C2.89065 18.3337 2.46673 18.1581 2.15417 17.8455C1.84161 17.5329 1.66602 17.109 1.66602 16.667V9.16699C1.66602 8.25033 2.41602 7.50033 3.33268 7.50033H4.99935" stroke="#5A5A5A" stroke-width="1.4" stroke-linecap="round" stroke-linejoin="round"/>
<path d="M15.0007 11.667H8.33398" stroke="#5A5A5A" stroke-width="1.4" stroke-linecap="round" stroke-linejoin="round"/>
<path d="M12.5007 15H8.33398" stroke="#5A5A5A" stroke-width="1.4" stroke-linecap="round" stroke-linejoin="round"/>
<path d="M8.33398 5H15.0007V8.33333H8.33398V5Z" stroke="#5A5A5A" stroke-width="1.4" stroke-linecap="round" stroke-linejoin="round"/>
</g>
<defs>
<clipPath id="clip0_582_17258">
<rect width="20" height="20" fill="white"/>
</clipPath>
</defs>
</svg>
