<svg width="16" height="16" viewBox="0 0 16 16" fill="none" xmlns="http://www.w3.org/2000/svg">
<path d="M11.9987 4.77008C11.9587 4.76341 11.9121 4.76341 11.8721 4.77008C10.9521 4.73675 10.2188 3.98341 10.2188 3.05008C10.2188 2.09675 10.9854 1.33008 11.9387 1.33008C12.8921 1.33008 13.6587 2.10341 13.6587 3.05008C13.6521 3.98341 12.9187 4.73675 11.9987 4.77008Z" fill="#2D2D2D" stroke="#2D2D2D" stroke-linecap="round" stroke-linejoin="round"/>
<path d="M11.3091 9.62352C12.2224 9.77685 13.2291 9.61685 13.9357 9.14352C14.8757 8.51685 14.8757 7.49019 13.9357 6.86352C13.2224 6.39019 12.2024 6.23018 11.2891 6.39018" fill="#2D2D2D"/>
<path d="M11.3091 9.62352C12.2224 9.77685 13.2291 9.61685 13.9357 9.14352C14.8757 8.51685 14.8757 7.49019 13.9357 6.86352C13.2224 6.39019 12.2024 6.23018 11.2891 6.39018" stroke="#2D2D2D" stroke-linecap="round" stroke-linejoin="round"/>
<path d="M3.98031 4.77008C4.02031 4.76341 4.06698 4.76341 4.10698 4.77008C5.02698 4.73675 5.76031 3.98341 5.76031 3.05008C5.76031 2.09675 4.99365 1.33008 4.04031 1.33008C3.08698 1.33008 2.32031 2.10341 2.32031 3.05008C2.32698 3.98341 3.06031 4.73675 3.98031 4.77008Z" fill="#2D2D2D" stroke="#2D2D2D" stroke-linecap="round" stroke-linejoin="round"/>
<path d="M4.6676 9.62352C3.75427 9.77685 2.7476 9.61685 2.04094 9.14352C1.10094 8.51685 1.10094 7.49019 2.04094 6.86352C2.75427 6.39019 3.77427 6.23018 4.6876 6.39018" fill="#2D2D2D"/>
<path d="M4.6676 9.62352C3.75427 9.77685 2.7476 9.61685 2.04094 9.14352C1.10094 8.51685 1.10094 7.49019 2.04094 6.86352C2.75427 6.39019 3.77427 6.23018 4.6876 6.39018" stroke="#2D2D2D" stroke-linecap="round" stroke-linejoin="round"/>
<path d="M7.99875 9.7525C7.95875 9.74584 7.91208 9.74584 7.87208 9.7525C6.95208 9.71917 6.21875 8.96583 6.21875 8.0325C6.21875 7.07917 6.98542 6.3125 7.93875 6.3125C8.89208 6.3125 9.65875 7.08583 9.65875 8.0325C9.65208 8.96583 8.91875 9.72584 7.99875 9.7525Z" fill="#2D2D2D" stroke="#2D2D2D" stroke-linecap="round" stroke-linejoin="round"/>
<path d="M6.05656 11.8571C5.11656 12.4838 5.11656 13.5105 6.05656 14.1371C7.12323 14.8505 8.86989 14.8505 9.93656 14.1371C10.8766 13.5105 10.8766 12.4838 9.93656 11.8571C8.87656 11.1505 7.12323 11.1505 6.05656 11.8571Z" fill="#2D2D2D" stroke="#2D2D2D" stroke-linecap="round" stroke-linejoin="round"/>
</svg>
