<svg width="16" height="16" viewBox="0 0 16 16" fill="none" xmlns="http://www.w3.org/2000/svg">
<path d="M5.5 2.25C5.5 2.05109 5.57902 1.86032 5.71967 1.71967C5.86032 1.57902 6.05109 1.5 6.25 1.5H12.25C12.4489 1.5 12.6397 1.57902 12.7803 1.71967C12.921 1.86032 13 2.05109 13 2.25C13 2.44891 12.921 2.63968 12.7803 2.78033C12.6397 2.92098 12.4489 3 12.25 3H9.906L7.633 13H9.75C9.94891 13 10.1397 13.079 10.2803 13.2197C10.421 13.3603 10.5 13.5511 10.5 13.75C10.5 13.9489 10.421 14.1397 10.2803 14.2803C10.1397 14.421 9.94891 14.5 9.75 14.5H3.75C3.55109 14.5 3.36032 14.421 3.21967 14.2803C3.07902 14.1397 3 13.9489 3 13.75C3 13.5511 3.07902 13.3603 3.21967 13.2197C3.36032 13.079 3.55109 13 3.75 13H6.095L8.367 3H6.25C6.05109 3 5.86032 2.92098 5.71967 2.78033C5.57902 2.63968 5.5 2.44891 5.5 2.25Z" fill="#5A5A5A"/>
</svg>
