<svg width="16" height="16" viewBox="0 0 16 16" fill="none" xmlns="http://www.w3.org/2000/svg">
<path d="M3.70211 2.25329C3.75576 2.15478 3.83497 2.07255 3.93141 2.01526C4.02785 1.95797 4.13794 1.92773 4.25011 1.92773C4.36228 1.92773 4.47238 1.95797 4.56882 2.01526C4.66525 2.07255 4.74446 2.15478 4.79811 2.25329L4.99411 2.61129C5.20111 2.98929 5.51111 3.29929 5.88911 3.50629L6.24711 3.70228C6.34559 3.75608 6.42778 3.8354 6.48503 3.93191C6.54228 4.02842 6.57249 4.13857 6.57249 4.25079C6.57249 4.363 6.54228 4.47315 6.48503 4.56966C6.42778 4.66617 6.34559 4.74549 6.24711 4.79928L5.88911 4.99529C5.51142 5.20156 5.20081 5.51183 4.99411 5.88929L4.79811 6.24829C4.74424 6.34652 4.66495 6.42847 4.56854 6.48555C4.47213 6.54263 4.36215 6.57275 4.25011 6.57275C4.13807 6.57275 4.02809 6.54263 3.93169 6.48555C3.83528 6.42847 3.75599 6.34652 3.70211 6.24829L3.50611 5.88929C3.29941 5.51183 2.9888 5.20156 2.61111 4.99529L2.25311 4.79928C2.15463 4.74549 2.07245 4.66617 2.0152 4.56966C1.95795 4.47315 1.92773 4.363 1.92773 4.25079C1.92773 4.13857 1.95795 4.02842 2.0152 3.93191C2.07245 3.8354 2.15463 3.75608 2.25311 3.70228L2.61111 3.50629C2.98911 3.29929 3.29911 2.98929 3.50611 2.61129L3.70211 2.25329Z" fill="#5A5A5A"/>
<path fill-rule="evenodd" clip-rule="evenodd" d="M10.9476 5.88956C10.7676 4.72256 9.09561 4.69956 8.88361 5.86056L8.85362 6.02456C8.71441 6.7866 8.34292 7.48693 7.79008 8.02957C7.23725 8.5722 6.53011 8.93057 5.76561 9.05556C4.61561 9.24356 4.59261 10.8886 5.73561 11.1096L5.84061 11.1296C6.58984 11.2752 7.27848 11.6413 7.81817 12.181C8.35787 12.7207 8.72401 13.4093 8.86961 14.1586L8.90162 14.3236C9.13461 15.5316 10.8646 15.5316 11.0976 14.3236L11.1226 14.1946C11.2698 13.4365 11.6422 12.7404 12.1911 12.1971C12.7401 11.6539 13.44 11.2888 14.1996 11.1496C15.3836 10.9336 15.3196 9.22156 14.1286 9.04256C13.3322 8.92289 12.5947 8.55266 12.0229 7.98555C11.4511 7.41844 11.0748 6.68394 10.9486 5.88856L10.9476 5.88956ZM10.0036 12.7766C10.5116 11.6216 11.4122 10.6839 12.5456 10.1296C11.3948 9.61928 10.4632 8.71604 9.91761 7.58156C9.40222 8.67939 8.52328 9.56539 7.42961 10.0896C8.58255 10.6469 9.49626 11.6008 10.0036 12.7766Z" fill="#5A5A5A"/>
</svg>
