<svg width="16" height="16" viewBox="0 0 16 16" fill="none" xmlns="http://www.w3.org/2000/svg">
<path d="M5.25 1.75C5.25 1.55109 5.17098 1.36032 5.03033 1.21967C4.88968 1.07902 4.69891 1 4.5 1C4.30109 1 4.11032 1.07902 3.96967 1.21967C3.82902 1.36032 3.75 1.55109 3.75 1.75V7.75C3.75 8.87717 4.19777 9.95817 4.9948 10.7552C5.79183 11.5522 6.87283 12 8 12C9.12717 12 10.2082 11.5522 11.0052 10.7552C11.8022 9.95817 12.25 8.87717 12.25 7.75V1.75C12.25 1.55109 12.171 1.36032 12.0303 1.21967C11.8897 1.07902 11.6989 1 11.5 1C11.3011 1 11.1103 1.07902 10.9697 1.21967C10.829 1.36032 10.75 1.55109 10.75 1.75V7.75C10.75 8.47935 10.4603 9.17882 9.94454 9.69454C9.42882 10.2103 8.72935 10.5 8 10.5C7.27065 10.5 6.57118 10.2103 6.05546 9.69454C5.53973 9.17882 5.25 8.47935 5.25 7.75V1.75Z" fill="#5A5A5A"/>
<path d="M2.75 13.5C2.55109 13.5 2.36032 13.579 2.21967 13.7197C2.07902 13.8603 2 14.0511 2 14.25C2 14.4489 2.07902 14.6397 2.21967 14.7803C2.36032 14.921 2.55109 15 2.75 15H13.25C13.4489 15 13.6397 14.921 13.7803 14.7803C13.921 14.6397 14 14.4489 14 14.25C14 14.0511 13.921 13.8603 13.7803 13.7197C13.6397 13.579 13.4489 13.5 13.25 13.5H2.75Z" fill="#5A5A5A"/>
</svg>
