<svg width="16" height="16" viewBox="0 0 16 16" fill="none" xmlns="http://www.w3.org/2000/svg">
<path fill-rule="evenodd" clip-rule="evenodd" d="M7.99994 1C8.14531 1.00001 8.28753 1.04227 8.40932 1.12163C8.53111 1.20099 8.62722 1.31403 8.68594 1.447L12.8859 10.947C12.9272 11.0373 12.9502 11.1349 12.9535 11.2342C12.9567 11.3334 12.9403 11.4324 12.905 11.5252C12.8698 11.6181 12.8164 11.703 12.7481 11.775C12.6797 11.8471 12.5978 11.9048 12.5069 11.945C12.4161 11.9851 12.3182 12.0068 12.2189 12.0088C12.1196 12.0107 12.0209 11.993 11.9285 11.9565C11.8361 11.9201 11.7519 11.8656 11.6807 11.7963C11.6096 11.7271 11.5529 11.6444 11.5139 11.553L10.1639 8.5H5.83594L4.48594 11.553C4.44609 11.6431 4.38888 11.7244 4.31758 11.7924C4.24628 11.8604 4.1623 11.9137 4.07041 11.9492C3.97853 11.9847 3.88055 12.0018 3.78207 11.9994C3.68359 11.9971 3.58653 11.9754 3.49644 11.9355C3.40636 11.8956 3.325 11.8384 3.25703 11.7671C3.18905 11.6958 3.13578 11.6119 3.10026 11.52C3.06474 11.4281 3.04767 11.3301 3.05002 11.2316C3.05237 11.1331 3.07409 11.0361 3.11394 10.946L7.31394 1.446C7.37282 1.31321 7.46899 1.20038 7.59076 1.12121C7.71254 1.04204 7.85469 0.999928 7.99994 1ZM7.99994 3.605L9.50094 7H6.49894L7.99994 3.605Z" fill="#5A5A5A"/>
<path d="M1.8252 13.5C1.62628 13.5 1.43552 13.579 1.29487 13.7197C1.15421 13.8603 1.0752 14.0511 1.0752 14.25C1.0752 14.4489 1.15421 14.6397 1.29487 14.7803C1.43552 14.921 1.62628 15 1.8252 15H14.1752C14.3741 15 14.5649 14.921 14.7055 14.7803C14.8462 14.6397 14.9252 14.4489 14.9252 14.25C14.9252 14.0511 14.8462 13.8603 14.7055 13.7197C14.5649 13.579 14.3741 13.5 14.1752 13.5H1.8252Z" fill="#5A5A5A"/>
</svg>
