<svg width="20" height="20" viewBox="0 0 20 20" fill="none" xmlns="http://www.w3.org/2000/svg">
<path fill-rule="evenodd" clip-rule="evenodd" d="M11.9878 12.8712C9.77927 14.6401 6.54641 14.5009 4.49909 12.4536C2.30239 10.2569 2.30239 6.6953 4.49909 4.4986C6.69579 2.3019 10.2573 2.3019 12.454 4.4986C14.5014 6.54592 14.6406 9.77877 12.8717 11.9873L17.1681 16.2837C17.4121 16.5278 17.4121 16.9235 17.1681 17.1676C16.924 17.4117 16.5283 17.4117 16.2842 17.1676L11.9878 12.8712ZM5.38297 11.5697C3.67443 9.86112 3.67443 7.09103 5.38297 5.38248C7.09151 3.67394 9.86161 3.67394 11.5702 5.38248C13.2774 7.08977 13.2787 9.85706 11.5739 11.5659C11.5727 11.5671 11.5714 11.5684 11.5701 11.5696C11.5689 11.5709 11.5676 11.5722 11.5664 11.5734C9.85755 13.2782 7.09026 13.277 5.38297 11.5697Z" fill="#AAAAAA"/>
</svg>
