<svg width="20" height="20" viewBox="0 0 20 20" fill="none" xmlns="http://www.w3.org/2000/svg">
<path fill-rule="evenodd" clip-rule="evenodd" d="M9.06656 3.22642C9.62858 2.25786 11.0273 2.25786 11.5893 3.22642L13.3104 6.19255C13.4691 6.46595 13.7433 6.65253 14.0558 6.69974L16.9139 7.13141C18.1597 7.31958 18.5967 8.89255 17.6264 9.69638L15.544 11.4216C15.2517 11.6638 15.1143 12.0458 15.1853 12.4186L15.7686 15.4819C15.9971 16.6819 14.7374 17.6142 13.6566 17.0451L10.8132 15.548C10.5095 15.388 10.1464 15.388 9.84261 15.548L6.99925 17.0451C5.9184 17.6142 4.65871 16.6819 4.88721 15.4819L5.47053 12.4186C5.54153 12.0458 5.4041 11.6638 5.11181 11.4216L3.02939 9.69638C2.05916 8.89255 2.49616 7.31958 3.74199 7.13141L6.60003 6.69974C6.91258 6.65253 7.18679 6.46595 7.34543 6.19255L9.06656 3.22642ZM10.5081 3.85377C10.4278 3.71541 10.228 3.71541 10.1477 3.85377L8.4266 6.81991C8.07758 7.42139 7.47432 7.83186 6.78671 7.93572L3.92867 8.36739C3.75069 8.39427 3.68827 8.61898 3.82687 8.73381L5.90929 10.4591C6.55232 10.9918 6.85467 11.8322 6.69846 12.6525L6.11515 15.7158C6.0825 15.8872 6.26246 16.0204 6.41687 15.9391L9.26023 14.4419C9.92853 14.09 10.7273 14.09 11.3956 14.4419L14.239 15.9391C14.3934 16.0204 14.5733 15.8872 14.5407 15.7158L13.9574 12.6525C13.8012 11.8322 14.1035 10.9918 14.7466 10.4591L16.829 8.73381C16.9676 8.61898 16.9051 8.39427 16.7272 8.36739L13.8691 7.93572C13.1815 7.83186 12.5783 7.4214 12.2292 6.81991L10.5081 3.85377Z" fill="#1A1A1A"/>
</svg>
