<svg width="20" height="20" viewBox="0 0 20 20" fill="none" xmlns="http://www.w3.org/2000/svg">
<path d="M13.5467 14.2951C13.5165 14.203 13.4144 14.1565 13.323 14.1887C12.9985 14.303 12.6582 14.3672 12.3137 14.3788C12.1202 14.3999 11.9245 14.3763 11.7417 14.3098C11.5588 14.2433 11.3936 14.1357 11.2588 13.9954C11.1241 13.855 11.0233 13.6856 10.9644 13.5001C10.9067 13.3186 10.8905 13.1266 10.9169 12.9381C10.9181 12.9299 10.9187 12.9216 10.9187 12.9133V8.39945H13.6582C13.7503 8.39945 13.8249 8.32483 13.8249 8.23278V6.38652C13.8249 6.29447 13.7503 6.21985 13.6582 6.21985H10.9187V2.66667C10.9187 2.57462 10.8441 2.5 10.7521 2.5H8.79726C8.76964 2.50185 8.74375 2.51414 8.72486 2.53438C8.70597 2.55462 8.69549 2.58129 8.69555 2.60898C8.64974 3.46905 8.35472 4.29722 7.84645 4.99255C7.36086 5.65685 6.70065 6.17249 5.94019 6.48286C5.87603 6.50905 5.83301 6.57085 5.83301 6.64015V8.23278C5.83301 8.32483 5.90763 8.39945 5.99967 8.39945H7.28607V13.151C7.28607 14.7711 8.48485 17.0815 11.6453 17.0307C12.655 17.0307 13.7751 16.6151 14.1154 16.2443C14.1503 16.2062 14.1569 16.1519 14.1408 16.1027L13.5467 14.2951Z" fill="#3A3A3A"/>
</svg>
