<svg width="20" height="20" viewBox="0 0 20 20" fill="none" xmlns="http://www.w3.org/2000/svg">
<path d="M18.1743 5.18953C18.2226 5.12222 18.1513 5.03531 18.074 5.06525C17.5251 5.27803 16.9514 5.42158 16.3662 5.49233C17.0178 5.10306 17.5206 4.51049 17.7994 3.80894C17.8278 3.73747 17.7498 3.67365 17.6825 3.71083C17.0769 4.04528 16.4237 4.28611 15.7453 4.42481C15.7169 4.43061 15.6876 4.42094 15.6677 4.39991C15.1585 3.86268 14.4883 3.50498 13.7577 3.38137C13.0117 3.25517 12.245 3.38013 11.5777 3.73665C10.9104 4.09318 10.3803 4.66111 10.0706 5.35136C9.77606 6.00766 9.69659 6.73925 9.84185 7.44186C9.85312 7.49637 9.81045 7.54784 9.75489 7.54439C8.43484 7.4624 7.14509 7.11129 5.96508 6.51221C4.78807 5.91466 3.7458 5.08335 2.90174 4.06958C2.86428 4.02458 2.79328 4.03041 2.76598 4.0822C2.50334 4.58059 2.36583 5.13608 2.3662 5.70066C2.36514 6.26265 2.50305 6.81618 2.76766 7.31197C3.03228 7.80776 3.41538 8.23042 3.88287 8.54233C3.3871 8.52884 2.90099 8.40628 2.45891 8.18406C2.40194 8.15542 2.3336 8.19619 2.33656 8.25989C2.37103 9.00092 2.64308 9.74486 3.11396 10.3156C3.61506 10.923 4.31058 11.3387 5.08287 11.4923C4.78558 11.5828 4.47693 11.6305 4.1662 11.634C3.99708 11.632 3.8283 11.6195 3.66081 11.5966C3.59872 11.5882 3.54801 11.6471 3.56975 11.7059C3.8001 12.3288 4.20703 12.8724 4.7421 13.2691C5.31414 13.6933 6.00418 13.9286 6.7162 13.9423C5.51387 14.8884 4.02944 15.4047 2.49954 15.409C2.34233 15.4095 2.1852 15.4044 2.02844 15.3937C1.9401 15.3877 1.89947 15.5054 1.97561 15.5506C3.46625 16.4352 5.17002 16.9028 6.90787 16.9007C8.19095 16.914 9.46381 16.6715 10.6521 16.1874C11.8404 15.7033 12.9204 14.9872 13.8289 14.0811C14.7374 13.1749 15.4562 12.0968 15.9433 10.9098C16.4305 9.72268 16.6762 8.45044 16.6662 7.16733V6.76747C16.6662 6.74116 16.6786 6.71642 16.6996 6.70057C17.2649 6.27378 17.762 5.76425 18.1743 5.18953Z" fill="#3A3A3A"/>
</svg>
