<svg width="20" height="20" viewBox="0 0 20 20" fill="none" xmlns="http://www.w3.org/2000/svg">
<path d="M19.9853 1.51469C19.9615 1.12463 19.7959 0.756732 19.5195 0.48041C19.2432 0.204087 18.8753 0.038448 18.4852 0.0147439C17.2271 -0.0602533 14.0119 0.0547423 11.3437 2.72164L10.8687 3.20263H5.03533C4.82439 3.20144 4.61533 3.2422 4.42029 3.32254C4.22526 3.40288 4.04814 3.5212 3.89926 3.67061L0.469043 7.10248C0.258678 7.31268 0.111063 7.57734 0.0427655 7.86677C-0.0255324 8.15619 -0.0118104 8.45892 0.0823916 8.74098C0.176594 9.02303 0.347547 9.27326 0.576067 9.46357C0.804587 9.65388 1.08163 9.77675 1.3761 9.81838L5.22334 10.3554L9.64461 14.7762L10.1816 18.625C10.2229 18.9195 10.3458 19.1965 10.5363 19.4249C10.7268 19.6532 10.9774 19.8236 11.2597 19.917C11.4242 19.9719 11.5964 20 11.7697 20C11.9797 20.0004 12.1876 19.9592 12.3816 19.8789C12.5755 19.7986 12.7516 19.6807 12.8998 19.532L16.332 16.1021C16.4815 15.9533 16.5998 15.7762 16.6801 15.5812C16.7605 15.3861 16.8012 15.1771 16.8001 14.9662V9.1334L17.2771 8.65642C19.9453 5.98852 20.0603 2.77364 19.9853 1.51469ZM5.03533 4.80257H9.26859L5.31534 8.75442L1.59911 8.23644L5.03533 4.80257ZM12.4768 3.8576C13.2456 3.08417 14.1705 2.48366 15.1899 2.09618C16.2093 1.70871 17.2997 1.54319 18.3882 1.61068C18.4583 2.69962 18.2944 3.79095 17.9077 4.81133C17.521 5.83171 16.9203 6.75749 16.146 7.52646L10.3997 13.2702L6.73143 9.60239L12.4768 3.8576ZM15.2 14.9662L11.7667 18.4021L11.2477 14.6852L15.2 10.7333V14.9662ZM7.7835 15.9162C7.33347 16.9021 5.82838 19.202 1.59911 19.202C1.38693 19.202 1.18343 19.1177 1.03339 18.9677C0.883355 18.8177 0.799064 18.6142 0.799064 18.4021C0.799064 14.1732 3.09921 12.6683 4.08527 12.2173C4.18088 12.1737 4.28414 12.1494 4.38915 12.1457C4.49417 12.142 4.59888 12.159 4.69732 12.1958C4.79576 12.2325 4.88598 12.2883 4.96286 12.36C5.03973 12.4316 5.10173 12.5177 5.14533 12.6133C5.18894 12.7089 5.21328 12.8121 5.21697 12.9171C5.22067 13.0221 5.20364 13.1268 5.16687 13.2253C5.13009 13.3237 5.07429 13.4139 5.00265 13.4908C4.931 13.5676 4.84492 13.6296 4.74931 13.6732C4.10627 13.9662 2.68718 14.9092 2.43717 17.5641C5.09233 17.3141 6.03739 15.8952 6.32841 15.2522C6.37201 15.1566 6.43402 15.0705 6.51089 14.9989C6.58776 14.9272 6.67798 14.8714 6.77642 14.8347C6.87486 14.7979 6.97957 14.7809 7.08459 14.7846C7.1896 14.7883 7.29286 14.8126 7.38847 14.8562C7.48408 14.8998 7.57017 14.9618 7.64181 15.0386C7.71346 15.1155 7.76926 15.2057 7.80603 15.3042C7.84281 15.4026 7.85983 15.5073 7.85614 15.6123C7.85244 15.7173 7.8281 15.8206 7.7845 15.9162H7.7835Z" fill="#F95C4B"/>
</svg>
