<svg width="60" height="60" viewBox="0 0 60 60" fill="none" xmlns="http://www.w3.org/2000/svg">
<path d="M26.8859 6.1248C28.6109 4.6498 31.4359 4.6498 33.1859 6.1248L37.1359 9.52481C37.8859 10.1748 39.2859 10.6998 40.2859 10.6998H44.5359C47.1859 10.6998 49.3609 12.8748 49.3609 15.5248V19.7748C49.3609 20.7498 49.8859 22.1748 50.5359 22.9248L53.9359 26.8748C55.4109 28.5998 55.4109 31.4248 53.9359 33.1748L50.5359 37.1248C49.8859 37.8748 49.3609 39.2748 49.3609 40.2748V44.5248C49.3609 47.1748 47.1859 49.3498 44.5359 49.3498H40.2859C39.3109 49.3498 37.8859 49.8748 37.1359 50.5248L33.1859 53.9248C31.4609 55.3998 28.6359 55.3998 26.8859 53.9248L22.9359 50.5248C22.1859 49.8748 20.7859 49.3498 19.7859 49.3498H15.4609C12.8109 49.3498 10.6359 47.1748 10.6359 44.5248V40.2498C10.6359 39.2748 10.1109 37.8748 9.48594 37.1248L6.11094 33.1498C4.66094 31.4248 4.66094 28.6248 6.11094 26.8998L9.48594 22.9248C10.1109 22.1748 10.6359 20.7748 10.6359 19.7998V15.4998C10.6359 12.8498 12.8109 10.6748 15.4609 10.6748H19.7859C20.7609 10.6748 22.1859 10.1498 22.9359 9.4998L26.8859 6.1248Z" fill="#0BA243"/>
<path d="M20.9609 30.0002L26.9859 36.0502L39.0609 23.9502" stroke="white" stroke-width="3" stroke-linecap="round" stroke-linejoin="round"/>
</svg>
