<svg width="20" height="20" viewBox="0 0 20 20" fill="none" xmlns="http://www.w3.org/2000/svg">
<path d="M10.4449 17.0187H5.17826C2.54492 17.0187 1.66992 15.2687 1.66992 13.5104V6.49369C1.66992 3.86035 2.54492 2.98535 5.17826 2.98535H10.4449C13.0783 2.98535 13.9533 3.86035 13.9533 6.49369V13.5104C13.9533 16.1437 13.0699 17.0187 10.4449 17.0187Z" stroke="#3A3A3A" stroke-width="1.5" stroke-linecap="round" stroke-linejoin="round"/>
<path d="M16.26 14.2511L13.9434 12.6261V7.36775L16.26 5.74275C17.3934 4.95109 18.3267 5.43442 18.3267 6.82609V13.1761C18.3267 14.5678 17.3934 15.0511 16.26 14.2511Z" stroke="#3A3A3A" stroke-width="1.5" stroke-linecap="round" stroke-linejoin="round"/>
<path d="M9.58008 9.16504C10.2704 9.16504 10.8301 8.60539 10.8301 7.91504C10.8301 7.22468 10.2704 6.66504 9.58008 6.66504C8.88972 6.66504 8.33008 7.22468 8.33008 7.91504C8.33008 8.60539 8.88972 9.16504 9.58008 9.16504Z" stroke="#3A3A3A" stroke-width="1.5" stroke-linecap="round" stroke-linejoin="round"/>
</svg>
