<svg width="32" height="32" viewBox="0 0 32 32" fill="none" xmlns="http://www.w3.org/2000/svg">
<path d="M15.9998 25.3337C12.9332 25.3337 7.4665 25.067 5.19984 24.5337C4.2665 24.267 3.59984 23.6003 3.33317 22.667C2.93317 21.2003 2.6665 18.1337 2.6665 16.0003C2.6665 13.867 2.93317 10.8003 3.33317 9.33366C3.59984 8.40033 4.2665 7.73366 5.19984 7.46699C7.4665 6.93366 12.9332 6.66699 15.9998 6.66699C19.0665 6.66699 24.5332 6.93366 26.7998 7.46699C27.7332 7.73366 28.3998 8.40033 28.6665 9.33366C29.0665 10.8003 29.3332 13.867 29.3332 16.0003C29.3332 18.1337 29.0665 21.2003 28.6665 22.667C28.3998 23.6003 27.7332 24.267 26.7998 24.5337C24.5332 25.067 19.0665 25.3337 15.9998 25.3337Z" stroke="#3A3A3A" stroke-width="3" stroke-linecap="round" stroke-linejoin="round"/>
<path d="M13.3335 20L20.0002 16L13.3335 12V20Z" stroke="#3A3A3A" stroke-width="3" stroke-linecap="round" stroke-linejoin="round"/>
</svg>
